# xmcd
#
# Track frame offsets:
#	150
#	22253
#	41501
#	57501
#	75871
#	89221
#	105288
#	124400
#	140742
#	155559
#	173742
#	191239
#	208081
#	226471
#	242753
#	257820
#	283517
#
# Disc length: 3794 seconds
#
# Revision: 1
# Processed by: cddbd v1.5.1PL0 Copyright (c) Steve Scherf et al.
# Submitted via: audiograbber 1.83.01
#
DISCID=fa0ed011
DTITLE=Karaoke - MH014
DYEAR=1900
DGENRE=Female Country
TTITLE0=Dixie Chicks - Cowboy Take Me Away
TTITLE1=Womack, Lee Ann - I Hope You Dance
TTITLE2=Johnson, Carolyn Dawn - Complicated
TTITLE3=Andrews, Jessica - Who I Am
TTITLE4=Trick Pony - Pour Me
TTITLE5=Twain, Shania - You've Got a Way
TTITLE6=Messina, Je Dee and Tim McGraw - Bring On the Rain
TTITLE7=McBride, Martina - When God-Fearin' Women Get the Blues
TTITLE8=Thomson, Cyndi - What I Really Meant to Say
TTITLE9=Yearwood, Trisha - Real Live Woman
TTITLE10=Dixie Chicks - Long Time Gone
TTITLE11=Evans, Sara - Born To Fly
TTITLE12=Rimes, LeAnn - I Need You
TTITLE13=Dixie Chicks - Without You
TTITLE14=Hill, Faith - Way You Love Me, The
TTITLE15=O'Neal, Jamie - When I Think About Angels
TTITLE16=Data Track
EXTD=
EXTT0=
EXTT1=
EXTT2=
EXTT3=
EXTT4=
EXTT5=
EXTT6=
EXTT7=
EXTT8=
EXTT9=
EXTT10=
EXTT11=
EXTT12=
EXTT13=
EXTT14=
EXTT15=
EXTT16=
PLAYORDER=
